<?xml version="1.0" standalone="no"?>
<!DOCTYPE svg PUBLIC "-//W3C//DTD SVG 20010904//EN"
 "http://www.w3.org/TR/2001/REC-SVG-20010904/DTD/svg10.dtd">
<svg version="1.0" xmlns="http://www.w3.org/2000/svg"
 width="700.000000pt" height="700.000000pt" viewBox="0 0 700.000000 700.000000"
 preserveAspectRatio="xMidYMid meet">
<metadata>
Created by potrace 1.11, written by Peter Selinger 2001-2013
</metadata>
<g transform="translate(0.000000,700.000000) scale(0.100000,-0.100000)"
fill="#000000" stroke="none">
<path d="M3215 6989 c-1004 -86 -1898 -579 -2513 -1387 -373 -489 -613 -1100
-684 -1737 -17 -155 -17 -575 0 -730 78 -702 350 -1343 798 -1879 474 -566
1124 -974 1837 -1151 302 -75 513 -100 847 -100 334 0 545 25 849 101 883 219
1659 789 2137 1569 268 438 429 913 496 1460 16 135 16 591 0 730 -52 436
-160 810 -342 1180 -305 620 -798 1146 -1401 1493 -601 346 -1334 509 -2024
451z m465 -319 c285 -18 540 -65 791 -146 805 -259 1475 -830 1857 -1582 124
-243 213 -485 267 -726 165 -736 74 -1487 -261 -2146 -495 -975 -1423 -1613
-2519 -1731 -142 -15 -488 -15 -630 0 -410 44 -781 154 -1130 335 -615 318
-1088 795 -1394 1406 -229 458 -334 903 -334 1420 0 517 100 942 328 1405 210
427 497 785 863 1076 509 406 1129 647 1774 688 193 12 207 12 388 1z"/>
<path d="M2910 5610 c-589 -73 -1084 -421 -1349 -948 -358 -714 -168 -1594
452 -2095 226 -183 464 -296 752 -358 98 -21 135 -24 340 -24 201 1 243 4 334
23 233 51 434 135 616 256 54 36 100 66 102 66 2 0 3 -33 3 -72 0 -138 -25
-106 463 -597 297 -297 455 -449 482 -462 49 -23 103 -24 153 -4 49 21 318
287 343 340 24 51 24 109 0 160 -13 27 -166 186 -462 482 -491 488 -459 463
-596 463 -40 0 -73 1 -73 3 0 2 30 48 67 103 269 401 355 931 227 1404 -172
634 -701 1121 -1347 1241 -128 23 -389 33 -507 19z m330 -530 c493 -61 892
-409 1016 -887 20 -75 27 -133 31 -244 7 -172 -6 -272 -49 -409 -132 -417
-480 -727 -911 -811 -121 -24 -309 -25 -433 -4 -371 65 -690 306 -859 650
-181 367 -160 801 57 1154 73 118 261 306 379 379 233 143 507 204 769 172z"/>
<path d="M2996 4739 c-24 -19 -26 -26 -26 -98 l0 -78 -57 -12 c-113 -22 -210
-100 -262 -210 -23 -49 -26 -69 -26 -156 0 -93 2 -105 33 -167 34 -70 97 -135
162 -168 19 -9 121 -43 225 -74 105 -31 203 -62 218 -68 50 -19 72 -94 45
-153 -21 -47 -53 -55 -210 -55 -121 0 -150 4 -187 20 -69 32 -85 27 -157 -42
-98 -94 -89 -134 45 -197 35 -16 88 -33 117 -37 l54 -6 0 -77 c0 -114 7 -121
128 -121 53 0 102 4 108 8 23 15 34 53 34 120 l0 69 48 7 c71 9 145 50 201
112 138 151 129 387 -21 531 -50 48 -114 75 -328 138 -209 62 -245 81 -256
139 -6 37 7 77 36 106 18 18 32 20 183 20 140 0 168 -3 206 -20 24 -11 50 -20
58 -20 8 0 46 30 84 67 82 78 88 105 37 149 -42 35 -118 68 -189 83 l-57 12
-4 80 c-4 108 -17 119 -133 119 -68 0 -87 -4 -109 -21z"/>
</g>
</svg>
